<?xml version="1.0" standalone="no"?><!DOCTYPE svg PUBLIC "-//W3C//DTD SVG 1.1//EN" "http://www.w3.org/Graphics/SVG/1.1/DTD/svg11.dtd"><svg t="1574912950429" class="icon" viewBox="0 0 1024 1024" version="1.1" xmlns="http://www.w3.org/2000/svg" p-id="34227" width="32" height="32" xmlns:xlink="http://www.w3.org/1999/xlink"><defs><style type="text/css"></style></defs><path d="M512 678.88c-184.36 0-333.79-57.33-333.79-149.49v93.86c0 92.17 149.44 166.87 333.79 166.87s333.72-74.7 333.72-166.87v-93.86c0.04 92.16-149.36 149.49-333.72 149.49z m0 166.87c-184.36 0-333.79-57.33-333.79-149.49v93.86C178.24 882.3 327.68 957 512 957s333.72-74.7 333.72-166.87v-93.86c0.04 92.15-149.36 149.49-333.72 149.49zM512 512c-184.36 0-333.79-57.32-333.79-149.49v93.87c0 92.16 149.44 166.87 333.79 166.87s333.72-74.72 333.72-166.87v-93.87C845.76 454.68 696.36 512 512 512z m0-445c-184.36 0-333.79 74.71-333.79 166.88v55.62c0 92.17 149.44 166.88 333.79 166.88s333.76-74.71 333.76-166.88v-55.62C845.76 141.71 696.36 67 512 67z" p-id="34228" fill="#fac800"></path></svg>