<?xml version="1.0" standalone="no"?><!DOCTYPE svg PUBLIC "-//W3C//DTD SVG 1.1//EN" "http://www.w3.org/Graphics/SVG/1.1/DTD/svg11.dtd"><svg t="1574929953910" class="icon" viewBox="0 0 1024 1024" version="1.1" xmlns="http://www.w3.org/2000/svg" p-id="8276" width="32" height="32" xmlns:xlink="http://www.w3.org/1999/xlink"><defs><style type="text/css"></style></defs><path d="M962.421 580.867c-5.775 37.028-41.167 67.327-78.64 67.327H421.052c-37.478 0-72.374-30.352-77.539-67.486l-51.846-372.645c-5.157-37.134 20.807-62.14 57.712-55.588L943.84 258.008c36.922 6.553 62.373 42.217 56.588 79.244l-38.007 243.611z m-95.333 107.991H302.35l-74.713-557.462c-2.26-16.923-15.639-29.472-30.685-29.637a36.108 36.108 0 0 0-5.241-0.37H56.542c-18.581 0-33.802 13.694-33.802 30.444s15.219 30.428 33.802 30.428h113.866l74.725 557.599c2.367 17.7 16.839 30.587 32.677 29.614 0.793 0.029 1.591 0.061 2.389 0.061h586.874c18.588 0 33.776-13.65 33.776-30.325 0-16.679-15.172-30.352-33.762-30.352zM470.561 855.164c0 37.241-30.255 67.442-67.583 67.442-37.338 0-67.591-30.203-67.591-67.442 0-37.241 30.255-67.442 67.591-67.442 37.338 0 67.583 30.203 67.583 67.442z m366.541 0c0 37.241-30.255 67.442-67.562 67.442-37.329 0-67.607-30.203-67.607-67.442 0-37.241 30.277-67.442 67.607-67.442 37.329 0 67.562 30.203 67.562 67.442z" fill="#d81e06" p-id="8277"></path></svg>