<?xml version="1.0" standalone="no"?><!DOCTYPE svg PUBLIC "-//W3C//DTD SVG 1.1//EN" "http://www.w3.org/Graphics/SVG/1.1/DTD/svg11.dtd"><svg t="1574839552089" class="icon" viewBox="0 0 1024 1024" version="1.1" xmlns="http://www.w3.org/2000/svg" p-id="8926" width="32" height="32" xmlns:xlink="http://www.w3.org/1999/xlink"><defs><style type="text/css"></style></defs><path d="M858.3 311.2C894 372.5 912 439.4 912 512s-17.9 139.5-53.7 200.8C822.5 774 774 822.6 712.8 858.3S584.6 912 512 912s-139.5-17.9-200.8-53.7c-61.2-35.7-109.7-84.2-145.6-145.6C129.9 651.5 112 584.6 112 512c0-72.5 17.9-139.4 53.7-200.8 35.7-61.2 84.2-109.7 145.6-145.6C372.5 130 439.4 112 512 112c72.5 0 139.4 17.9 200.8 53.7C774 201.5 822.5 250 858.3 311.2z m-101.1 343c25.3-43.4 38-90.8 38-142.2s-12.7-98.8-38-142.2-59.7-77.8-103.1-103.1-90.8-38-142.2-38-98.8 12.7-142.2 38-77.8 59.7-103.1 103.1-38 90.8-38 142.2c0 51.4 12.7 98.8 38 142.2s59.7 77.8 103.1 103.1c43.4 25.3 90.8 38 142.2 38s98.8-12.7 142.2-38c43.4-25.3 77.8-59.6 103.1-103.1zM578.7 328.8v233.3c0 4.8-1.5 8.9-4.7 11.9-3.2 3.2-7.1 4.7-11.9 4.7H395.4c-4.8 0-8.9-1.5-11.9-4.7-3.2-3.2-4.7-7.1-4.7-11.9v-33.3c0-4.8 1.5-8.9 4.7-11.9 3.2-3.2 7.1-4.7 11.9-4.7H512V328.8c0-4.8 1.5-8.9 4.7-11.9 3.2-3.2 7.1-4.7 11.9-4.7h33.3c4.8 0 8.9 1.5 11.9 4.7 3.3 3 4.9 6.9 4.9 11.9z" p-id="8927" fill="#1ABC9C"></path></svg>