<?xml version="1.0" standalone="no"?><!DOCTYPE svg PUBLIC "-//W3C//DTD SVG 1.1//EN" "http://www.w3.org/Graphics/SVG/1.1/DTD/svg11.dtd"><svg t="1574846643640" class="icon" viewBox="0 0 1024 1024" version="1.1" xmlns="http://www.w3.org/2000/svg" p-id="34708" width="32" height="32" xmlns:xlink="http://www.w3.org/1999/xlink"><defs><style type="text/css"></style></defs><path d="M908.16 829.1c-12.71 28.27-42.23 46.52-75.06 46.52H637.48c-16.44 40.91-66.41 83.71-125.49 83.71-59.09 0-109.06-42.8-125.5-83.71H190.9c-32.92 0-62.35-18.25-75.06-46.52-11.81-26.12-7.16-55.92 12.17-77.75 58.69-66.38 85.98-120.87 85.98-171.42l0.09-193.51c0-110.4 79-205.06 190.11-242.81h0.01c-0.28-2.09-0.42-4.21-0.42-6.35 0-40.09 48.45-72.59 108.21-72.59s108.21 32.5 108.21 72.59c0 2.15-0.14 4.27-0.42 6.37 111.18 37.76 190.15 132.32 190.15 242.79v193.6c0 50.46 27.37 104.95 86.06 171.33 19.33 21.83 23.98 51.63 12.17 77.75z" p-id="34709" fill="#cccccc"></path></svg>